<?xml version="1.0" encoding="UTF-8"?>
<svg version="1.1" xmlns="http://www.w3.org/2000/svg" width="512" height="512">
<path d="M0 0 C1.51752365 0.00081573 1.51752365 0.00081573 3.06570435 0.00164795 C64.03383896 0.15195349 124.38492277 22.2937212 169.28125 64.09375 C171.33044082 65.98730608 173.4174028 67.7809786 175.5625 69.5625 C197.13522947 88.44964478 213.4852747 113.19059366 226.75 138.375 C227.09240723 139.00970215 227.43481445 139.6444043 227.78759766 140.29833984 C239.66509338 162.53542159 247.04050667 188.55283782 250.75 213.375 C250.93111328 214.52492432 251.11222656 215.67484863 251.29882812 216.85961914 C252.95901603 228.46247156 253.14760207 239.97950709 253.125 251.6875 C253.12478851 252.70012909 253.12457703 253.71275818 253.12435913 254.756073 C253.09062973 270.96936256 252.11370683 286.46979021 248.75 302.375 C248.57339844 303.2721875 248.39679688 304.169375 248.21484375 305.09375 C240.75891306 342.64954905 223.98901742 378.73133681 199.75 408.375 C199.04875 409.26703125 198.3475 410.1590625 197.625 411.078125 C174.98045292 439.55031287 146.82490835 461.48102034 114.75 478.375 C114.11529785 478.71740723 113.4805957 479.05981445 112.82666016 479.41259766 C90.63744608 491.26452581 64.5428713 498.76879933 39.75 502.375 C38.51717285 502.55683838 37.2843457 502.73867676 36.01416016 502.92602539 C24.38861259 504.52574112 12.84646231 504.73439688 1.125 504.6875 C0.15411438 504.68534485 -0.81677124 504.6831897 -1.81707764 504.68096924 C-16.15585186 504.62991637 -30.15546967 504.23449913 -44.25 501.375 C-45.26545898 501.17632324 -46.28091797 500.97764648 -47.32714844 500.77294922 C-114.12046039 487.41228523 -172.33275578 448.35644574 -210.4375 391.9375 C-230.50348582 361.50590246 -243.63551137 327.39098818 -249.25 291.375 C-249.43401367 290.21709961 -249.61802734 289.05919922 -249.80761719 287.86621094 C-251.46087557 276.29340228 -251.64865444 264.80228741 -251.625 253.125 C-251.62445618 252.11331757 -251.62391235 251.10163513 -251.62335205 250.05929565 C-251.47067819 188.13050334 -228.64209996 127.88899879 -186.25 82.375 C-185.05759878 81.00424817 -183.86986117 79.62942137 -182.6875 78.25 C-175.85194941 70.4446459 -168.36774448 63.82328546 -160.25 57.375 C-159.15327992 56.48743112 -158.05693735 55.59939559 -156.9609375 54.7109375 C-122.77493654 27.18657382 -81.67358298 8.9885981 -38.25 2.375 C-37.095 2.19243652 -35.94 2.00987305 -34.75 1.82177734 C-23.17345728 0.16693296 -11.68129814 -0.02366256 0 0 Z " fill="#41B654" transform="translate(255.25,3.625)"/>
<path d="M0 0 C1.52862671 0.01135986 1.52862671 0.01135986 3.08813477 0.02294922 C11.96672705 0.21457854 19.64008555 1.61542149 28.0625 4.4375 C28.71234863 4.65180664 29.36219727 4.86611328 30.03173828 5.08691406 C40.51018731 8.59590479 50.32111767 13.25199149 60.0625 18.4375 C61.02857178 18.94555176 61.02857178 18.94555176 62.01416016 19.46386719 C83.48819507 30.82961675 102.71393072 45.61553852 121.0625 61.4375 C121.77921875 62.05238281 122.4959375 62.66726562 123.234375 63.30078125 C125.19276849 64.99616735 127.1309497 66.71159004 129.0625 68.4375 C129.90554688 69.18773437 130.74859375 69.93796875 131.6171875 70.7109375 C137.86869626 76.35254297 143.9099038 82.18128407 149.875 88.125 C150.58003662 88.82544434 151.28507324 89.52588867 152.01147461 90.24755859 C156.56570835 94.81521715 160.86186502 99.54465393 165.0625 104.4375 C166.02371482 105.53215069 166.98590362 106.62594716 167.94921875 107.71875 C191.95778303 135.19521801 212.28868589 166.17407254 225.0625 200.4375 C225.4651709 201.49179199 225.4651709 201.49179199 225.87597656 202.56738281 C228.95872676 210.90511646 229.43802507 218.93771056 229.5625 227.75 C229.59077881 229.25433594 229.59077881 229.25433594 229.61962891 230.7890625 C229.53485919 240.44961102 226.86848836 248.01833174 220.4296875 255.2578125 C219.0625 256.4375 219.0625 256.4375 217.0625 256.4375 C216.75505859 257.25734375 216.75505859 257.25734375 216.44140625 258.09375 C214.52620836 261.34904386 211.85718016 263.53608565 209 265.9375 C208.37931641 266.46085937 207.75863281 266.98421875 207.11914062 267.5234375 C171.49391667 297.09909512 127.02840088 315.17892295 80.47314453 314.82861328 C77.93077372 314.81245726 75.38998121 314.82862176 72.84765625 314.84765625 C58.27466237 314.86733583 44.50490054 312.80259009 30.5 308.6875 C29.62069824 308.43145996 28.74139648 308.17541992 27.83544922 307.91162109 C19.57487975 305.42490639 11.80224738 302.22662515 4.0625 298.4375 C3.44213867 298.14149902 2.82177734 297.84549805 2.18261719 297.54052734 C-12.46008071 290.49330066 -25.22299767 280.65052535 -36.9375 269.4375 C-37.7315625 268.70660156 -38.525625 267.97570312 -39.34375 267.22265625 C-55.72994531 251.64021419 -66.4837752 232.17346895 -74.9375 211.4375 C-75.32679687 210.50808594 -75.71609375 209.57867187 -76.1171875 208.62109375 C-78.29352168 203.09590427 -79.74429586 197.46557717 -81.0625 191.6875 C-81.30069458 190.65230225 -81.30069458 190.65230225 -81.54370117 189.59619141 C-84.47868668 176.04369126 -85.34660398 162.68848937 -85.3125 148.875 C-85.31195618 148.04156067 -85.31141235 147.20812134 -85.31085205 146.34942627 C-85.27096614 133.01764172 -84.38663721 120.37307699 -80.9375 107.4375 C-80.72319336 106.60734375 -80.50888672 105.7771875 -80.28808594 104.921875 C-70.7871823 68.85439803 -50.90521367 27.38620662 -19.984375 4.62109375 C-13.13818813 0.66232539 -7.85176673 -0.08167445 0 0 Z " fill="#F9F3A3" transform="translate(183.9375,98.5625)"/>
<path d="M0 0 C0 3 0 3 -1.5 6.5625 C-8.38602875 26.92405869 0.89587509 51.54530752 9.76586914 69.89404297 C11.45437287 73.29283217 13.2184108 76.64926889 15 80 C15.38172363 80.72477539 15.76344727 81.44955078 16.15673828 82.19628906 C24.64639931 98.22883465 34.76793588 112.78530373 46 127 C46.65355469 127.83660156 47.30710937 128.67320312 47.98046875 129.53515625 C55.52329148 139.09976652 63.29618774 148.6176889 72.07836914 157.07568359 C73.90773076 158.90760181 75.58373719 160.79990151 77.2578125 162.7734375 C80.80643576 166.85625706 84.59446622 170.57831553 88.5625 174.25 C89.25939941 174.89767334 89.95629883 175.54534668 90.67431641 176.21264648 C122.99334169 206.07636539 161.56608502 236.11144237 205 247 C205.86882812 247.22300781 206.73765625 247.44601562 207.6328125 247.67578125 C218.39181455 250.03633842 230.70760016 250.57344663 241.1171875 246.65625 C243 246 243 246 246 246 C228.83442798 262.43821727 209.48836979 274.97340928 188 285 C187.2786084 285.33918457 186.5572168 285.67836914 185.81396484 286.02783203 C176.59636322 290.30205018 167.32640207 293.71054218 157.5 296.3125 C156.63624756 296.54275879 155.77249512 296.77301758 154.88256836 297.01025391 C139.82828514 300.77141018 124.90975696 302.5077379 109.41064453 302.39111328 C106.86827372 302.37495726 104.32748121 302.39112176 101.78515625 302.41015625 C87.21216237 302.42983583 73.44240054 300.36509009 59.4375 296.25 C58.55819824 295.99395996 57.67889648 295.73791992 56.77294922 295.47412109 C48.51237975 292.98740639 40.73974738 289.78912515 33 286 C32.37963867 285.70399902 31.75927734 285.40799805 31.12011719 285.10302734 C16.47741929 278.05580066 3.71450233 268.21302535 -8 257 C-8.7940625 256.26910156 -9.588125 255.53820312 -10.40625 254.78515625 C-26.79244531 239.20271419 -37.5462752 219.73596895 -46 199 C-46.38929687 198.07058594 -46.77859375 197.14117187 -47.1796875 196.18359375 C-49.35602168 190.65840427 -50.80679586 185.02807717 -52.125 179.25 C-52.36319458 178.21480225 -52.36319458 178.21480225 -52.60620117 177.15869141 C-55.54118668 163.60619126 -56.40910398 150.25098937 -56.375 136.4375 C-56.37445618 135.60406067 -56.37391235 134.77062134 -56.37335205 133.91192627 C-56.33346614 120.58014172 -55.44913721 107.93557699 -52 95 C-51.78569336 94.16984375 -51.57138672 93.3396875 -51.35058594 92.484375 C-42.08169997 57.29768708 -24.6171644 26.66271675 0 0 Z " fill="#FBD73A" transform="translate(155,111)"/>
<path d="M0 0 C5.19235528 2.17121817 6.6192069 7.02914793 8.70259094 11.90249634 C9.23522049 13.12425568 9.23522049 13.12425568 9.77861023 14.37069702 C10.94227661 17.04380134 12.09601129 19.7210654 13.24946594 22.39859009 C14.45593572 25.18082506 15.6644559 27.96216378 16.87303162 30.7434845 C17.69526001 32.63634256 18.5166027 34.52958559 19.33708191 36.42320251 C22.02696826 42.62537844 24.75824491 48.807538 27.52290344 54.97671509 C28.22315323 56.54366666 28.92334992 58.11064196 29.62348938 59.67764282 C30.61710002 61.90077305 31.6128161 64.12281691 32.61579895 66.34173584 C33.53415203 68.37472877 34.44348393 70.4115357 35.35102844 72.44937134 C35.86488098 73.59188354 36.37873352 74.73439575 36.90815735 75.91152954 C37.99946594 78.83609009 37.99946594 78.83609009 37.99946594 82.83609009 C31.82753289 82.41546031 27.85526345 80.38615643 22.68696594 77.08609009 C21.90933899 76.5987439 21.13171204 76.11139771 20.33052063 75.60928345 C6.91453565 67.08740879 -5.68254669 57.66964544 -17.55522156 47.10952759 C-18.85247264 45.9665442 -20.17503733 44.8524436 -21.50053406 43.74234009 C-25.44036908 40.43983132 -28.68209851 37.47296119 -31.00053406 32.83609009 C-30.92972007 27.49683034 -27.47902185 24.71847928 -23.91850281 21.18765259 C-23.30791519 20.57086639 -22.69732758 19.9540802 -22.0682373 19.31860352 C-20.7778132 18.02108911 -19.48224499 16.72867311 -18.18193054 15.44107056 C-16.18965158 13.46269632 -14.22258098 11.46145199 -12.25639343 9.45718384 C-10.99938157 8.19922117 -9.74096465 6.94266059 -8.48100281 5.68765259 C-7.89231918 5.08571075 -7.30363556 4.48376892 -6.69711304 3.86358643 C-2.53234081 -0.20748248 -2.53234081 -0.20748248 0 0 Z " fill="#FBD83B" transform="translate(281.0005340576172,243.16390991210938)"/>
<path d="M0 0 C9.07642132 0.22691053 15.76862329 9.61930018 21.79296875 15.64770508 C22.52565475 16.37703247 23.25834076 17.10635986 24.01322937 17.85778809 C26.40727679 20.24242081 28.79761554 22.6307269 31.1875 25.01953125 C32.85751162 26.68632703 34.5275974 28.3530485 36.19775391 30.0196991 C39.68260301 33.49858318 43.16540205 36.97950497 46.64697266 40.46166992 C51.11886485 44.93366436 55.59763295 49.39870463 60.07814026 53.86206532 C63.52148478 57.29433014 66.96031413 60.73109083 70.39785767 64.16916466 C72.04855205 65.81867574 73.70087562 67.46655808 75.35482788 69.11280251 C77.65535991 71.40360293 79.94954803 73.70057215 82.2421875 75.99926758 C82.93092453 76.6823851 83.61966156 77.36550262 84.32926941 78.06932068 C84.94876968 78.69301544 85.56826996 79.31671021 86.20654297 79.95930481 C86.74922821 80.50144528 87.29191345 81.04358576 87.8510437 81.60215473 C89 83 89 83 89 85 C83.72731388 84.40937219 79.542188 82.66016932 74.7890625 80.45703125 C73.59896576 79.91639542 73.59896576 79.91639542 72.38482666 79.36483765 C69.795231 78.18715721 67.21012222 76.99996371 64.625 75.8125 C61.01717374 74.16586059 57.40721876 72.52392365 53.796875 70.8828125 C52.89013031 70.46994492 51.98338562 70.05707733 51.04916382 69.63169861 C45.21020097 66.98014273 39.34687222 64.39447875 33.453125 61.8671875 C32.71681854 61.55047592 31.98051208 61.23376434 31.22189331 60.90745544 C28.43311087 59.70899907 25.64427803 58.5112171 22.84649658 57.33389282 C12.27036405 52.88244942 4.52624452 49.09090412 0 38 C-3.84446436 25.52855761 -5.14231956 12.21300896 0 0 Z " fill="#FBD83B" transform="translate(173,131)"/>
<path d="M0 0 C6.17202383 0.42063596 10.14405902 2.45004828 15.3125 5.75 C16.08940186 6.23662109 16.86630371 6.72324219 17.66674805 7.22460938 C31.21834322 15.829143 43.97407235 25.37655989 56 36 C56.96164062 36.83917969 57.92328125 37.67835938 58.9140625 38.54296875 C68.59819693 47.09682236 68.59819693 47.09682236 69.46435547 51.19946289 C68.73625003 55.59068136 65.89427511 57.82020505 62.796875 60.8671875 C62.16267639 61.50616974 61.52847778 62.14515198 60.87506104 62.80349731 C59.53271455 64.14924325 58.18404508 65.48870752 56.82958984 66.82226562 C54.75395427 68.87109679 52.70636559 70.94526383 50.66015625 73.0234375 C49.35316309 74.32712745 48.04462018 75.62926596 46.734375 76.9296875 C45.81383331 77.86541092 45.81383331 77.86541092 44.87469482 78.82003784 C43.11621094 80.53076172 43.11621094 80.53076172 40 83 C37.43486045 82.83677012 36.37940012 82.43029888 34.67300415 80.49497986 C31.58203491 75.22714679 28.96489378 69.8505877 26.5234375 64.25390625 C25.91192337 62.87239883 25.91192337 62.87239883 25.28805542 61.46298218 C23.97768095 58.49876909 22.6760225 55.53082817 21.375 52.5625 C20.47798842 50.52592507 19.58052601 48.48954864 18.68261719 46.45336914 C16.92009087 42.45482081 15.16080562 38.45486773 13.40332031 34.45410156 C11.37047178 29.83227995 9.31395594 25.22166736 7.2421875 20.6171875 C6.72350098 19.45888428 6.20481445 18.30058105 5.67041016 17.10717773 C4.75073586 15.05490352 3.82623831 13.00478111 2.89599609 10.95727539 C2.50234863 10.07289795 2.10870117 9.18852051 1.703125 8.27734375 C1.36958008 7.53734131 1.03603516 6.79733887 0.69238281 6.03491211 C0 4 0 4 0 0 Z " fill="#FBD83B" transform="translate(245,134)"/>
<path d="M0 0 C7.71750917 2.66827287 12.53089798 10.12911131 17.40917969 16.31762695 C18.75820807 18.01082659 20.13385042 19.6793866 21.515625 21.34594727 C28.73943473 30.11575947 35.18606861 39.2570963 41.32763672 48.81323242 C42.62118243 50.81705064 43.93838785 52.80313286 45.26171875 54.78735352 C46.01172052 55.93884908 46.76050602 57.09113817 47.5078125 58.24438477 C48.15363281 59.23051758 48.79945313 60.21665039 49.46484375 61.23266602 C50.88380029 64.34536116 50.73930475 65.72991972 49.6953125 68.93188477 C44.42262744 68.34125708 40.23749867 66.5920556 35.484375 64.38891602 C34.69088654 64.02844681 33.89739807 63.6679776 33.0798645 63.29658508 C30.4903659 62.11893883 27.90534983 60.9317877 25.3203125 59.74438477 C21.71508851 58.09905151 18.1077287 56.45843623 14.5 54.81860352 C13.59366821 54.40594238 12.68733643 53.99328125 11.75354004 53.56811523 C5.88775968 50.90435407 -0.00228676 48.30571482 -5.921875 45.76391602 C-6.66291473 45.4448378 -7.40395447 45.12575958 -8.16744995 44.79701233 C-10.97843145 43.58784185 -13.78959826 42.37960245 -16.60906982 41.19033813 C-18.51637184 40.38567959 -20.41858644 39.56992695 -22.3203125 38.75219727 C-23.38540039 38.30118652 -24.45048828 37.85017578 -25.54785156 37.38549805 C-28.4421042 35.85942824 -30.3325663 34.54762453 -32.3046875 31.93188477 C-31.72370111 27.24620979 -28.47097404 24.59407885 -25.29296875 21.38110352 C-24.68712448 20.76290237 -24.08128021 20.14470123 -23.45707703 19.50776672 C-22.17411172 18.20525002 -20.88695573 16.90684973 -19.59594727 15.61230469 C-17.6240221 13.62626828 -15.68030068 11.61516285 -13.73632812 9.60180664 C-12.48602234 8.33910563 -11.23412056 7.07798254 -9.98046875 5.81860352 C-9.4021077 5.21352463 -8.82374664 4.60844574 -8.2278595 3.98503113 C-4.09050602 -0.08431229 -4.09050602 -0.08431229 0 0 Z " fill="#FBD83B" transform="translate(327.3046875,198.068115234375)"/>
<path d="M0 0 C4.38933925 0.57092789 7.91636429 1.66788074 11.92578125 3.52734375 C13.09584717 4.06375488 14.26591309 4.60016602 15.47143555 5.15283203 C16.75182017 5.7476572 18.03217409 6.34254847 19.3125 6.9375 C22.07344199 8.20898253 24.8371008 9.47447171 27.6015625 10.73828125 C28.33636337 11.07470642 29.07116425 11.41113159 29.82823181 11.75775146 C35.86230327 14.50882818 41.93606301 17.1622555 48.0234375 19.79296875 C48.95087265 20.19488937 49.8783078 20.59681 50.83384705 21.01091003 C54.53420262 22.61425839 58.23446043 24.21751665 61.9425354 25.802948 C64.5421951 26.9149954 67.13664819 28.03847677 69.73046875 29.1640625 C70.50832733 29.49274826 71.28618591 29.82143402 72.08761597 30.16007996 C76.0283992 31.88241602 79.44392857 33.38310841 82 37 C81.39601294 41.68723667 78.1724687 44.33155573 74.98828125 47.55078125 C74.38243698 48.16898239 73.77659271 48.78718353 73.15238953 49.42411804 C71.86942422 50.72663474 70.58226823 52.02503504 69.29125977 53.31958008 C67.3193346 55.30561649 65.37561318 57.31672192 63.43164062 59.33007812 C62.18133484 60.59277913 60.92943306 61.85390222 59.67578125 63.11328125 C59.0974202 63.71836014 58.51905914 64.32343903 57.923172 64.94685364 C56.33656442 66.50738046 54.90404571 67.8475603 53 69 C46.93456174 68.87498099 44.03115012 66.18874652 40 62 C37.33180232 58.94548026 34.7966712 55.79908948 32.28613281 52.61425781 C30.93710443 50.92105818 29.56146208 49.25249817 28.1796875 47.5859375 C17.36626177 34.46006112 5.84016223 19.67808612 -1 4 C-0.69921875 1.6171875 -0.69921875 1.6171875 0 0 Z " fill="#FBD83B" transform="translate(187,193)"/>
<path d="M0 0 C4.51974458 0.66074957 8.41613787 2.3712668 12.53515625 4.25390625 C13.27450409 4.58652969 14.01385193 4.91915314 14.77560425 5.26185608 C17.20692724 6.35693133 19.63484899 7.45931075 22.0625 8.5625 C25.49132717 10.11518743 28.92128516 11.6653631 32.3515625 13.21484375 C33.22797897 13.61131104 34.10439545 14.00777832 35.00737 14.41625977 C41.07072144 17.1518575 47.16260437 19.81384161 53.2734375 22.44140625 C55.71207089 23.49733518 58.15016617 24.55449686 60.58810425 25.61203003 C62.14074636 26.28147017 63.69583934 26.94525745 65.25344849 27.60305786 C74.27854778 31.41788115 82.16027828 34.77178997 87.48828125 43.4140625 C92.56283736 57.02637889 94.01090345 71.24984233 89 85 C82.87902569 84.9498196 80.22319357 82.92350204 75.92523193 78.69396973 C75.18363831 77.93394653 74.44204468 77.17392334 73.67797852 76.39086914 C72.47675606 75.1957798 72.47675606 75.1957798 71.25126648 73.97654724 C68.61240292 71.34369224 65.99563014 68.69000184 63.37890625 66.03515625 C61.55161778 64.20175248 59.72314541 62.36952796 57.89353943 60.53843689 C54.06571165 56.70140823 50.24753394 52.85517565 46.43774414 49.00024414 C41.54342606 44.04805375 36.63060976 39.11464993 31.71173191 34.18686771 C27.93817933 30.40621945 24.17152042 26.61874227 20.4063549 22.82974052 C18.59590007 21.00785886 16.78448369 19.1869322 14.97210884 17.36696053 C12.44817522 14.82934867 9.93115572 12.28509021 7.41625977 9.73852539 C6.66049652 8.98052643 5.90473328 8.22252747 5.12606812 7.44155884 C4.4462236 6.75029404 3.76637909 6.05902924 3.06593323 5.34681702 C2.47032876 4.74526322 1.87472429 4.14370943 1.26107121 3.52392673 C0 2 0 2 0 0 Z " fill="#FBD83A" transform="translate(302,244)"/>
<path d="M0 0 C0.88316895 0.00418945 1.76633789 0.00837891 2.67626953 0.01269531 C12.909307 0.18800159 23.20865927 1.12669289 30.81567383 8.68115234 C35.3641563 13.6627145 37.97466927 19.05399632 40.6875 25.1875 C41.17984131 26.27651611 41.67218262 27.36553223 42.17944336 28.48754883 C43.9493142 32.42175559 45.69563704 36.36583932 47.4375 40.3125 C47.98159515 41.54302094 47.98159515 41.54302094 48.53668213 42.79840088 C52.92125767 52.71469134 57.28672307 62.63929063 61.62890625 72.57421875 C61.96908279 73.35247513 62.30925934 74.13073151 62.65974426 74.93257141 C63.29275863 76.38270566 63.92395544 77.83363517 64.55300903 79.28549194 C65.13939447 80.62932479 65.73508335 81.96913888 66.34030151 83.30459595 C67.62079848 86.16619249 68.4375 88.1373141 68.4375 91.3125 C65.41199758 89.9566141 63.31194545 88.43784943 60.97079468 86.09976196 C60.30346817 85.4380751 59.63614166 84.77638824 58.94859314 84.09465027 C57.86681541 83.00679985 57.86681541 83.00679985 56.76318359 81.89697266 C55.99528 81.1325737 55.2273764 80.36817474 54.436203 79.58061218 C51.89772405 77.05094008 49.36663584 74.51401666 46.8359375 71.9765625 C45.07553896 70.2175109 43.31484359 68.45875631 41.55386353 66.70028687 C37.39094605 62.54069715 33.2332191 58.37596756 29.07728255 54.20940435 C25.76290071 50.88751328 22.4434659 47.5707345 19.12109375 44.25683594 C14.5407039 39.68802818 9.96521684 35.114375 5.39387894 30.53651047 C3.6498058 28.79110186 1.90424215 27.04718133 0.15717697 25.30476761 C-2.28240842 22.8702533 -4.71550362 20.42943331 -7.14697266 17.98681641 C-7.87220627 17.26563126 -8.59743988 16.54444611 -9.34465027 15.80140686 C-10.33718056 14.8004171 -10.33718056 14.8004171 -11.34976196 13.77920532 C-12.21306342 12.91477279 -12.21306342 12.91477279 -13.09380531 12.03287697 C-15.19444884 9.5722575 -16.5625 7.46469872 -16.5625 4.1875 C-15.5625 2.3125 -15.5625 2.3125 -13.09765625 1.21484375 C-8.65914595 0.08192013 -4.56259928 -0.02933038 0 0 Z " fill="#FBD83A" transform="translate(199.5625,118.6875)"/>
<path d="M0 0 C3.02868397 1.35659745 5.12597953 2.87652868 7.46670532 5.21946716 C8.13403183 5.88259918 8.80135834 6.5457312 9.48890686 7.22895813 C10.21009201 7.95576279 10.93127716 8.68256744 11.67431641 9.43139648 C12.44222 10.19740173 13.2101236 10.96340698 14.001297 11.75262451 C16.53963187 14.28725312 19.07069175 16.82901372 21.6015625 19.37109375 C23.36188918 21.1326124 25.12258553 22.8937617 26.88363647 24.65455627 C31.0463756 28.81906045 35.20427982 32.98834684 39.36021745 37.15963751 C43.61585399 41.43015332 47.87859954 45.69352732 52.14202309 49.95626736 C55.77792276 53.59243868 59.4112123 57.23120844 63.04362106 60.87086678 C64.78857687 62.61900928 66.534143 64.36654279 68.28032303 66.11346245 C70.71756901 68.5528716 73.15149619 70.99554252 75.58447266 73.43920898 C76.30970627 74.16398941 77.03493988 74.88876984 77.78215027 75.63551331 C78.44383713 76.30146515 79.10552399 76.96741699 79.78726196 77.65354919 C80.36279627 78.23075934 80.93833057 78.80796949 81.53130531 79.40267086 C83 81 83 81 85 84 C84.625 86.6875 84.625 86.6875 84 89 C72.93971117 93.61614726 56.70178081 92.51486902 45.62109375 88.29296875 C38.39691767 84.72932898 34.90431502 80.34583352 31.3984375 73.140625 C30.88785545 72.10464172 30.88785545 72.10464172 30.36695862 71.04772949 C25.62653249 61.32029435 21.30166548 51.39998509 16.9375 41.5 C16.07000289 39.54021341 15.20216574 37.58057731 14.33398438 35.62109375 C12.6592032 31.8392914 10.98934719 28.05537829 9.32373047 24.26953125 C7.83491771 20.88634934 6.33431975 17.50891634 4.82080078 14.13671875 C4.32526451 13.02520447 4.32526451 13.02520447 3.81971741 11.89123535 C3.21181266 10.52786918 2.59981809 9.16631595 1.9828949 7.80700684 C0.73960886 5.00529687 0 3.10584366 0 0 Z " fill="#FBD83A" transform="translate(296,250)"/>
<path d="M0 0 C0 3.20395416 -0.74335022 5.09399739 -2 8 C-2.99 7.67 -3.98 7.34 -5 7 C-3.70700306 4.11562221 -2.34058637 2.12780579 0 0 Z " fill="#D9D44A" transform="translate(155,111)"/>
</svg>
